Patient4_TMGait_0pt4_01_left_28_EMG.mot
version=1
nRows=30
nColumns=33
inDegrees=no
endheader
time	1LAddLong	2LGlutMax	3LGlutMed	4LIliopsoas	5LSemiMemb	6LBicFemLong	7LRecFem	8LVastMed	9LVastLat	10LGasMed	11LTibAnt	12lTibPost	13LPeroneusLong	14LSol	15LExtDigLong	16LFlexDigLong	17RAddLong	18RGlutMax	19RGlutMed	20RIliopsoas	21RSemiMemb	22RBicFemLong	23RRecFem	24RVastMed	25RVastLat	26RGasMed	27RTibAnt	28RTibPost	29RPeroneusLong	30RSol	31RExtDigLong	32RFlexDigLong
34.08	-0.002594	0.54962	0.015564	-0.012054	0.005493	0.006409	0.46921	0.007629	-0.24262	0.001678	-0.19333	-0.015106	-0.01236	-0.041046	-0.14771	-0.000305	0.049438	-0.30472	0.018158	-0.020599	0.028381	-0.10574	0.048981	-0.064697	0.010529	0.068359	-0.046997	0.51514	-0.035858	0.005646	-0.007019	0.004578
34.081	0.001984	0.55206	0.029449	-0.00946	0.004578	0.00473	0.42709	0.000458	-0.24719	0.012817	-0.15121	-0.016327	-0.033722	0.022736	-0.022125	0.004578	0.039825	-0.32532	0.17593	-0.006866	-0.10574	0.018311	0.035858	-0.12955	0.073242	-0.045166	-0.000458	0.23499	-0.35309	0.25055	-0.000153	0.006104
34.082	-0.000916	0.53101	0.03952	0.006714	0.005798	0.007324	0.40054	0.006714	-0.24155	0.039978	-0.059509	-0.005798	-0.057831	0.036774	-0.016022	-0.002136	0.035095	-0.36713	0.37369	0.017853	-0.12604	-0.020294	0.094299	-0.080261	0.040894	-0.00351	0.039825	-0.12848	-0.41306	0.67352	-0.00061	-0.013123
34.083	-0.003662	0.50644	0.014343	0.005341	0.008087	0.013885	0.35797	0.005798	-0.23819	0.048218	-0.000153	-0.009308	-0.06897	-0.010986	0.22095	0.008087	0.003052	-0.36697	0.35324	-0.023651	-0.044556	-0.056915	0.12894	0.1207	-0.013885	0.050507	0.18433	0.003967	-0.38956	0.72769	0.001373	-0.012054
34.084	0.002594	0.48508	0.040436	-0.003052	0.00412	-0.005951	0.3392	0.011292	-0.24292	0.018463	0.081635	-0.000458	-0.041504	-0.009766	-0.087891	0.003662	0.018768	-0.31982	0.28931	-0.055389	-0.05127	-0.022125	0.10712	0.068512	-0.049591	0.057526	0.15488	0.30487	-0.16922	0.25024	-0.001221	-0.007629
34.085	-0.001526	0.46951	0.033569	-0.00946	0.006104	0.006561	0.31281	0.006409	-0.22614	-0.021515	0.031281	-0.009918	0.011597	-0.001068	-0.037994	0.006104	0.026398	-0.28305	0.15366	-0.024414	-0.12573	0.1358	-0.11307	-0.034027	-0.063782	0.061493	0.12543	0.062714	-0.006561	-0.23575	-0.001373	-0.007172
34.086	0.001221	0.41733	0.032349	-0.005798	0.007172	-0.013123	0.28961	0.008392	-0.23438	-0.02121	-0.12619	-0.006256	0.069885	0.002441	-0.08667	0.010071	0.037842	-0.34027	0.12222	-0.033417	0.002899	0.22873	-0.54398	-0.069122	-0.039673	0.025482	0.073395	0.009308	0.20721	-0.19196	0.000153	-0.006561
34.087	0	0.40741	0.045929	0.013428	0.011139	-0.015564	0.26779	0.006409	-0.24445	0.019379	-0.09552	-0.013123	0.019684	-0.094604	-0.14175	0.008087	0.061188	-0.32288	0.078278	-0.034485	0.093079	0.081177	-0.44403	-0.055084	0.018005	0.037689	-0.015259	-0.023804	0.028992	-0.21133	-0.001068	-0.006714
34.088	0.006866	0.3833	0.040131	0.009155	0.008087	-0.010681	0.24719	0.00885	-0.25177	0.013275	-0.063019	-0.01358	0.046387	-0.12985	-0.12833	0.007629	0.070648	-0.30106	0.1741	-0.057068	0.16724	0.027161	-0.13611	-0.056	0.037994	0.035095	-0.048828	-0.018005	0.090179	-0.27634	-0.001526	-0.019226
34.089	-0.001221	0.36941	0.031586	0.011902	-0.007782	-0.001984	0.23438	0.008087	-0.25253	0.02121	0.14069	-0.005951	-0.035706	-0.22003	0.011444	-0.00412	0.040283	-0.28412	0.15411	-0.052948	-0.035706	0.07782	-0.029449	0.029755	0.10346	0.009918	-0.10437	-0.028992	0.29694	-0.45258	-0.001678	-0.002747
34.09	-0.000305	0.35248	0.011597	0.003052	-0.001068	0.000763	0.22324	0.005341	-0.25864	0.020447	0.034027	-0.007019	-0.06073	-0.26916	-0.12192	-0.006104	0.024261	-0.36407	0.14511	-0.018311	-0.18478	0.11841	-0.061035	0.061798	0.086975	-0.009003	-0.10254	-0.040741	0.36377	-0.38635	-0.003357	0.001678
34.091	0.006866	0.28854	-0.00412	-0.019073	0.012512	0.012817	0.20981	0.007935	-0.25742	0.011597	-0.078735	-0.009308	-0.03418	-0.069427	0.014191	-0.019989	-0.018768	-0.40009	0.22797	0.001373	-0.27451	0.16663	-0.096283	0.11902	0.062561	-0.015411	-0.000458	-0.15701	0.068359	-0.32318	-0.001678	0.016022
34.092	0.005341	0.26382	-0.002747	0.008392	-0.001526	0.005646	0.20096	0.007935	-0.26108	0.015869	-0.11185	-0.007172	-0.009003	0.025635	0.020447	-0.011749	-0.013885	-0.3421	0.22507	0.045166	-0.058289	0.21103	-0.079346	0.13718	0.06546	-0.028992	0.036621	-0.2182	-0.06424	-0.28397	-0.00061	0.003204
34.093	0.005188	0.24155	-0.002289	0.006104	0.000153	-0.002747	0.18662	0.003967	-0.25055	0	-0.16098	-0.009613	0.11414	-0.014801	-0.1294	-0.005493	-0.001221	-0.33081	0.23468	0.021362	0.045929	0.11215	-0.074158	0.066223	0.10376	-0.1091	-0.031281	-0.041809	-0.1648	-0.093079	0.001373	-0.000916
34.094	0.007324	0.2272	0.006561	-0.019226	-0.001831	-0.019531	0.17899	0.008545	-0.25513	-0.007629	-0.041962	0.002747	0.1413	-0.011444	-0.16586	-0.017395	-0.002747	-0.32166	0.15961	0.010986	-0.023499	0.12161	-0.081635	0.027618	0.077667	0.029755	-0.076752	-0.17181	-0.077362	0.2095	-0.000763	0.004425
34.095	0.004272	0.22049	0.009766	-0.016632	0.004425	-0.026855	0.1561	0.006714	-0.27557	0.005493	0.050201	0.004425	0.083923	0.063019	0.066223	-0.009155	0.011444	-0.2269	0.26566	-0.002899	-0.011292	0.043335	-0.056458	0.046387	0.070648	0.031891	-0.027466	-0.23148	-0.68024	-0.058594	0.000763	-0.002594
34.096	0.093689	0.20538	0.003052	-0.002136	0.005188	-0.01236	0.15503	0.003967	-0.2948	0.004578	0.061951	-0.008087	0.048218	0.088501	0.46097	-0.005798	0.038452	-0.11932	0.26718	-0.015106	-0.072479	-0.018005	0.001526	-0.029602	0.044556	0.031128	-0.037842	0.30533	-0.14954	-0.5098	0.000153	-0.003815
34.097	0.066376	0.18646	-0.00824	-0.001678	-0.003357	-0.027618	0.14206	0.007477	-0.31677	0.003967	0.11658	-0.003357	0.035858	0.095367	0.057526	-0.000305	0.06897	-0.033417	0.13336	0.035858	-0.14297	-0.057373	0.074615	-0.046387	0.032654	0.015869	-0.029755	0.21622	0.3302	-0.38177	-0.002136	-0.010223
34.098	-0.002899	0.14404	0.016632	-0.005646	-0.001678	-0.023193	0.14771	0.00824	-0.32837	0.009613	0.076447	-0.004272	0.022736	0.03952	0.021362	-0.00824	0.084534	-0.018616	-0.15243	0.053253	-0.28061	-0.037231	0.13992	-0.083008	0.0383	0.006866	0.034332	0.242	0.28458	0.35141	-0.00061	0.000153
34.099	0.011902	0.16129	0.055847	0.003204	0.005341	-0.023804	0.1358	0.005493	-0.31876	0.013885	0.10162	0.001678	0.009003	-0.07782	-0.060883	-0.010681	0.029602	-0.014801	0.006409	0.020905	-0.3096	-0.010376	0.10513	-0.02121	0.070343	0.014343	0.15427	0.09613	0.46646	0.46326	0.00061	0.005188
34.1	0.002289	0.13489	0.026703	-0.004883	0.00885	0.005188	0.11765	0.005035	-0.30716	-0.018463	-0.024719	0.000153	-0.004425	-0.010681	0.055084	-0.000763	-0.004883	0.000458	0.24628	-0.018005	-0.1593	0.06897	0.070648	-0.027924	0.069733	-0.048828	0.34973	0.002136	-0.033417	0.13794	-0.000763	-0.011444
34.101	0.001068	0.10513	0.015564	0.003967	0.011139	0.009003	0.11612	0.011292	-0.25803	-0.041046	-0.080719	-0.001984	0.029144	0.059509	-0.11841	-0.001678	-0.030823	0.010681	0.55115	-0.030518	0.03479	0.09903	-0.07782	0.022278	0.053406	-0.074615	0.55985	-0.081482	-0.20248	0.014648	0.000153	-0.011749
34.102	-0.002289	0.072479	0.006409	-0.013733	0.00473	0.025482	0.10773	0.009155	-0.22598	-0.033875	-0.04364	0.005493	0.027313	0.018616	-0.12619	-0.007019	-0.029907	-0.003662	0.006561	0.06424	0.030975	0.15182	-0.30426	-0.063019	0.082703	0.013123	0.62195	0.018616	-0.29541	-0.2829	-0.001526	-0.021667
34.103	-0.000153	0.085907	-0.024414	-0.023346	0.003357	0.013123	0.098572	0.014343	-0.18478	0.031891	0.067749	-0.008545	-0.022736	-0.071259	-0.14755	0.009155	-0.033264	-0.00412	0.096893	0.029449	0.23956	0.07309	-0.27298	-0.006409	-0.005035	0.048828	0.36163	0.029907	0.043335	-0.63919	-0.001678	-0.023193
34.104	0.004578	0.10544	-0.03479	-0.02655	0.021973	0.036774	0.10971	0.002899	-0.15808	0.090485	0.041046	-0.000916	-0.016632	-0.24399	-0.11414	-0.009003	-0.000305	0.038757	0.084534	0.00351	0.10712	-0.003357	-0.14145	0.058594	-0.13367	0.043488	-0.38483	-0.029907	0.1088	-0.49072	0.000916	-0.021515
34.105	-0.017242	0.088654	-0.013428	-0.007782	0.014343	0.054321	0.089264	0.007019	-0.12375	0.069733	0.014496	0.008698	0.025482	-0.37125	-0.082703	-0.025787	0.004883	0.11139	0.25909	0.018158	-0.046844	0.007019	-0.13229	0.047455	-0.20081	0.030518	-0.49606	-0.056305	0.1532	0.10025	-0.002289	-0.003357
34.106	0.006104	0.083313	-0.027924	0.024109	0.014038	0.050354	0.079651	0.014343	-0.090027	0.031281	-0.029449	0.006714	0.021973	-0.51148	-0.085907	-0.024261	0.023956	0.15579	0.51468	0.035858	-0.11719	-0.006256	-0.026398	0.023193	-0.13229	0.020752	-0.271	-0.031738	0.065155	-0.028381	0	-0.00061
34.107	0.001526	0.082703	-0.001831	0.054626	-0.018311	0.035553	0.074768	0.01297	-0.062256	-0.033264	0.044098	0.003357	-0.007629	-0.30823	-0.068665	-0.02182	0.032654	0.25803	0.38849	0.00351	-0.16159	-0.029602	-0.025787	0.095367	0.005798	0.014954	-0.49683	-0.0177	-0.083771	-0.071716	-0.00061	-0.000916
34.108	0.009003	0.072937	-0.020447	0.020294	-0.00824	0.002747	0.078735	0.013885	-0.020752	-0.061035	0.024261	0.009003	0	0.03418	0.27359	-0.019684	-0.016174	0.29541	0.19394	-0.055695	-0.013123	-0.095062	-0.089874	0.059357	-0.057983	0.028229	-0.64789	-0.029907	-0.05127	-0.18829	-0.00473	0.002289
34.109	-0.003052	0.075378	-0.012512	-0.007172	0.01709	0.018311	0.053253	0.006866	0.015564	-0.032501	-0.00473	0	-0.010376	0.10834	0.19455	-0.007935	-0.017242	0.37994	0.289	-0.053711	0.002441	-0.14526	-0.051727	0.04776	-0.020142	0.036163	-0.41061	-0.026855	0.14069	-0.18997	0.001984	0.010681
